<?xml version="1.0" encoding="utf-8"?>
<!-- Generator: Adobe Illustrator 23.0.2, SVG Export Plug-In . SVG Version: 6.00 Build 0)  -->
<svg version="1.1" id="Layer_1" xmlns="http://www.w3.org/2000/svg" xmlns:xlink="http://www.w3.org/1999/xlink" x="0px" y="0px"
	 viewBox="0 0 4680 3120" style="enable-background:new 0 0 4680 3120;" xml:space="preserve">
<style type="text/css">
	.st0{fill:#B0D8FF;}
	.st1{fill:#FFFFFF;}
	.st2{fill:url(#SVGID_1_);}
	.st3{fill:#D5E1F7;}
	.st4{fill:#EBF5FF;}
	.st5{fill:#00D967;}
	.st6{fill:#DAEBFF;}
	.st7{fill:#E2EEFA;}
	.st8{fill:#D3E2F9;}
	.st9{fill:#D1E3FF;}
	.st10{fill:#E3EEFF;}
	.st11{fill:#F5FCFF;}
	.st12{fill:#D1E3FF;stroke:#B6D4FF;stroke-miterlimit:10;}
	.st13{fill:none;stroke:#B6D4FF;stroke-width:2.32;stroke-miterlimit:10;}
	.st14{opacity:0.45;fill:url(#SVGID_2_);enable-background:new    ;}
	.st15{fill:url(#SVGID_3_);}
	.st16{fill:#006DFE;}
	.st17{clip-path:url(#SVGID_5_);}
	.st18{opacity:0.34;enable-background:new    ;}
	.st19{fill:#191E56;}
	.st20{fill:#0542BF;}
	.st21{clip-path:url(#SVGID_7_);}
	.st22{fill:#004EFC;}
	.st23{fill:#FFAB00;}
	.st24{clip-path:url(#SVGID_9_);}
	.st25{fill:#FE8E00;}
	.st26{fill:#1E2889;}
	.st27{clip-path:url(#SVGID_11_);}
	.st28{fill:#1A1A7C;}
	.st29{clip-path:url(#SVGID_13_);}
	.st30{fill:#DE4D30;}
	.st31{fill:#9BB4C9;}
	.st32{fill:#4143C5;}
	.st33{fill:#859AD0;}
	.st34{fill:#FFACA6;}
	.st35{clip-path:url(#SVGID_15_);}
	.st36{fill:#EA756C;}
	.st37{clip-path:url(#SVGID_17_);}
	.st38{fill:#172272;}
	.st39{clip-path:url(#SVGID_19_);}
	.st40{fill:#78C2FF;}
</style>
<title>03</title>
<g>
	<g>
		<g id="Layer_1-2">
			<rect x="3204.3" y="762.3" class="st0" width="164.4" height="210.5"/>
			<rect x="3214.2" y="772" class="st1" width="144.5" height="191.1"/>
			<rect x="3379.7" y="580.2" class="st0" width="276.4" height="342.4"/>
			<rect x="3395.7" y="595.6" class="st1" width="244.4" height="311.5"/>
			<path class="st0" d="M798.3,436.6h972.8c32,0,58,25.9,58,58v1015.7c0,32-25.9,58-58,58H798.3c-32,0-58-25.9-58-58V494.6
				C740.3,462.6,766.3,436.6,798.3,436.6z"/>
			
				<linearGradient id="SVGID_1_" gradientUnits="userSpaceOnUse" x1="1267.688" y1="2872.6699" x2="1281.4379" y2="1450.12" gradientTransform="matrix(1 0 0 -1 0 3120)">
				<stop  offset="0" style="stop-color:#B0D8FF"/>
				<stop  offset="2.000000e-02" style="stop-color:#B3D9FF"/>
				<stop  offset="0.15" style="stop-color:#C4E1FF"/>
				<stop  offset="0.3" style="stop-color:#D1E7FF"/>
				<stop  offset="0.51" style="stop-color:#D8EAFF"/>
				<stop  offset="1" style="stop-color:#DAEBFF"/>
			</linearGradient>
			<path class="st2" d="M794.7,456h960.7c30.1,0,54.4,24.4,54.4,54.4v1003.4c0,30.1-24.4,54.4-54.4,54.4H794.7
				c-30.1,0-54.4-24.4-54.4-54.4V510.4C740.3,480.3,764.7,456,794.7,456z"/>
			<path class="st3" d="M805.4,503.4h946.3c10.4,0,18.8,8.4,18.8,18.8v170.8c0,10.4-8.4,18.8-18.8,18.8H805.4
				c-10.4,0-18.8-8.4-18.8-18.8V522.2C786.7,511.8,795.1,503.4,805.4,503.4z"/>
			<path class="st1" d="M800,498h946.3c10.4,0,18.8,8.4,18.8,18.8v170.8c0,10.4-8.4,18.8-18.8,18.8H800c-10.4,0-18.8-8.4-18.8-18.8
				V516.7C781.2,506.4,789.6,498,800,498z"/>
			<path class="st3" d="M805.9,1324.7h946.3c10.4,0,18.8,8.4,18.8,18.8v170.8c0,10.4-8.4,18.8-18.8,18.8H805.9
				c-10.4,0-18.8-8.4-18.8-18.8v-170.8C787.1,1333.1,795.5,1324.7,805.9,1324.7z"/>
			<path class="st1" d="M800,1317.2h946.3c10.4,0,18.8,8.4,18.8,18.8v170.8c0,10.4-8.4,18.8-18.8,18.8H800
				c-10.4,0-18.8-8.4-18.8-18.8V1336C781.2,1325.6,789.6,1317.2,800,1317.2z"/>
			<path class="st3" d="M829.6,1346.2h280.6c8,0,14.4,6.5,14.4,14.4v0c0,8-6.5,14.4-14.4,14.4H829.6c-8,0-14.5-6.5-14.5-14.4v0
				C815.2,1352.7,821.7,1346.2,829.6,1346.2z"/>
			<path class="st3" d="M829.6,1414.4h898.8c8,0,14.4,6.5,14.4,14.4v0c0,8-6.5,14.4-14.4,14.4H829.6c-8,0-14.5-6.5-14.5-14.4v0
				C815.2,1420.9,821.7,1414.4,829.6,1414.4z"/>
			<path class="st4" d="M829.6,1467.6h898.8c8,0,14.4,6.5,14.4,14.4v0c0,8-6.5,14.4-14.4,14.4H829.6c-8,0-14.5-6.5-14.5-14.4v0
				C815.2,1474.1,821.7,1467.6,829.6,1467.6z"/>
			<path class="st3" d="M995,760.5v517.6c0,7.7-6.3,14-14,14H800.6c-7.7,0-14-6.3-14-14V760.5c0-7.7,6.3-14,14-14H981
				C988.7,746.5,995,752.8,995,760.5z"/>
			<path class="st1" d="M990.8,753.3v517.6c0,7.7-6.3,14-14,14H796.4c-7.7,0-14-6.3-14-14V753.3c0-7.7,6.3-14,14-14h180.4
				C984.5,739.3,990.8,745.6,990.8,753.3z"/>
			<path class="st3" d="M1773.1,772.7v493.1c0,14.5-11.7,26.2-26.2,26.2h-680.2c-14.5,0-26.2-11.7-26.2-26.2V772.7
				c0-14.5,11.7-26.2,26.2-26.2h680.2C1761.4,746.5,1773.1,758.3,1773.1,772.7z"/>
			<path class="st1" d="M1765,765.5v493.1c0,14.5-11.7,26.2-26.2,26.2h-680.2c-14.5,0-26.2-11.7-26.2-26.2V765.5
				c0-14.5,11.7-26.2,26.2-26.2h680.2C1753.3,739.3,1765,751.1,1765,765.5z"/>
			<path class="st5" d="M1074.4,762h196.7c7.5,0,13.6,6.1,13.6,13.6v1.8c0,7.5-6.1,13.6-13.6,13.6h-196.7c-7.5,0-13.6-6.1-13.6-13.6
				v-1.8C1060.8,768.1,1066.9,762,1074.4,762z"/>
			<path class="st3" d="M1074.8,830.3h642.9c7.7,0,14,6.3,14,14v1c0,7.7-6.3,14-14,14h-642.9c-7.7,0-14-6.3-14-14v-1
				C1060.8,836.5,1067.1,830.3,1074.8,830.3z"/>
			<path class="st4" d="M1074.8,883.4h642.9c7.7,0,14,6.3,14,14v1c0,7.7-6.3,14-14,14h-642.9c-7.7,0-14-6.3-14-14v-1
				C1060.8,889.7,1067.1,883.4,1074.8,883.4z"/>
			<path class="st5" d="M1074.4,936.6h196.7c7.5,0,13.6,6.1,13.6,13.6v1.8c0,7.5-6.1,13.6-13.6,13.6h-196.7
				c-7.5,0-13.6-6.1-13.6-13.6v-1.8C1060.8,942.7,1066.9,936.6,1074.4,936.6z"/>
			<path class="st3" d="M1074.8,1004.8h642.9c7.7,0,14,6.3,14,14v1c0,7.7-6.3,14-14,14h-642.9c-7.7,0-14-6.3-14-14v-1
				C1060.8,1011.1,1067.1,1004.8,1074.8,1004.8z"/>
			<path class="st4" d="M1074.8,1058h642.9c7.7,0,14,6.3,14,14v1c0,7.7-6.3,14-14,14h-642.9c-7.7,0-14-6.3-14-14v-1
				C1060.8,1064.3,1067.1,1058,1074.8,1058z"/>
			<path class="st5" d="M1074.4,1111.2h196.7c7.5,0,13.6,6.1,13.6,13.6v1.8c0,7.5-6.1,13.6-13.6,13.6h-196.7
				c-7.5,0-13.6-6.1-13.6-13.6v-1.8C1060.8,1117.2,1066.9,1111.2,1074.4,1111.2z"/>
			<path class="st3" d="M1074.8,1179.4h642.9c7.7,0,14,6.3,14,14v1c0,7.7-6.3,14-14,14h-642.9c-7.7,0-14-6.3-14-14v-1
				C1060.8,1185.6,1067.1,1179.4,1074.8,1179.4z"/>
			<path class="st4" d="M1074.8,1232.6h642.9c7.7,0,14,6.3,14,14v1c0,7.7-6.3,14-14,14h-642.9c-7.7,0-14-6.3-14-14v-1
				C1060.8,1238.8,1067.1,1232.6,1074.8,1232.6z"/>
			<path class="st6" d="M815.9,762h139.6c11,0,19.9,8.9,19.9,19.9v126.4c0,11-8.9,19.9-19.9,19.9H815.9c-11,0-19.9-8.9-19.9-19.9
				V781.9C796,771,804.9,762,815.9,762z"/>
			<path class="st6" d="M815.9,958.7h139.6c11,0,19.9,8.9,19.9,19.9V1105c0,11-8.9,19.9-19.9,19.9H815.9c-11,0-19.9-8.9-19.9-19.9
				V978.6C796,967.6,804.9,958.7,815.9,958.7z"/>
			<path class="st6" d="M1062.6,624.6h176.1c10.9,0,19.8,8.8,19.8,19.8v21.8c0,10.9-8.8,19.8-19.8,19.8h-176.1
				c-10.9,0-19.8-8.8-19.8-19.8v-21.8C1042.8,633.5,1051.6,624.6,1062.6,624.6z"/>
			<path class="st6" d="M822.5,624.6h176.1c10.9,0,19.8,8.8,19.8,19.8v21.8c0,10.9-8.8,19.8-19.8,19.8H822.5
				c-10.9,0-19.8-8.8-19.8-19.8v-21.8C802.7,633.5,811.5,624.6,822.5,624.6z"/>
			<path class="st6" d="M1304.8,624.6h176.1c10.9,0,19.8,8.8,19.8,19.8v21.8c0,10.9-8.8,19.8-19.8,19.8h-176.1
				c-10.9,0-19.8-8.8-19.8-19.8v-21.8C1285,633.5,1293.9,624.6,1304.8,624.6z"/>
			<path class="st6" d="M1547,624.6h176.1c10.9,0,19.8,8.8,19.8,19.8v21.8c0,10.9-8.8,19.8-19.8,19.8H1547
				c-10.9,0-19.8-8.8-19.8-19.8v-21.8C1527.3,633.5,1536.1,624.6,1547,624.6z"/>
			<path class="st6" d="M818.4,518.3h902.7c12.1,0,21.8,9.8,21.8,21.8V582c0,12.1-9.8,21.8-21.8,21.8H818.4
				c-12.1,0-21.8-9.8-21.8-21.8v-41.8C796.6,528.1,806.3,518.3,818.4,518.3z"/>
			<ellipse class="st7" cx="1846.7" cy="2464" rx="290" ry="78"/>
			<ellipse class="st7" cx="1131.2" cy="2342.4" rx="139" ry="43.6"/>
			<ellipse class="st7" cx="2113.4" cy="2371.9" rx="238.6" ry="58.7"/>
			<ellipse class="st7" cx="3460.3" cy="2273.6" rx="376" ry="40.9"/>
			<ellipse class="st7" cx="2722" cy="2480.2" rx="108.6" ry="33.8"/>
			<rect x="701.3" y="2145.9" class="st8" width="2967.8" height="19.8"/>
			<path class="st9" d="M3137.6,1072h655.8c20.6,0,37.3,16.7,37.3,37.3v1128.4c0,20.6-16.7,37.3-37.3,37.3h-655.8
				c-20.6,0-37.3-16.7-37.3-37.3V1109.3C3100.4,1088.7,3117,1072,3137.6,1072z"/>
			<rect x="3167.1" y="1954.2" class="st10" width="298.4" height="251.6"/>
			<rect x="3465.5" y="1954.2" class="st10" width="296.1" height="251.6"/>
			<rect x="3167.1" y="1136.3" class="st11" width="594.5" height="217.5"/>
			<rect x="3167.1" y="1408.9" class="st11" width="594.5" height="217.5"/>
			<rect x="3167.1" y="1681.6" class="st11" width="594.5" height="217.5"/>
			<ellipse class="st9" cx="3400.8" cy="2029.1" rx="21.1" ry="20"/>
			<ellipse class="st9" cx="3534" cy="2029.1" rx="21.1" ry="20"/>
			<rect x="3182.3" y="1184.8" class="st12" width="49.7" height="165.9"/>
			<rect x="3232" y="1184.8" class="st12" width="49.7" height="165.9"/>
			<rect x="3281.8" y="1184.8" class="st12" width="49.7" height="165.9"/>
			<rect x="3331.5" y="1184.8" class="st12" width="49.7" height="165.9"/>
			<rect x="3381.3" y="1184.8" class="st12" width="49.7" height="165.9"/>
			<rect x="3476.2" y="1459.6" class="st12" width="49.7" height="165.9"/>
			<rect x="3525.9" y="1459.6" class="st12" width="49.7" height="165.9"/>
			<rect x="3227.4" y="1530.9" class="st12" width="174.4" height="47.3"/>
			<rect x="3244.3" y="1483.6" class="st12" width="174.4" height="47.3"/>
			<rect x="3246.9" y="1578.2" class="st12" width="174.4" height="47.3"/>
			<rect x="3575.7" y="1459.6" class="st12" width="49.7" height="165.9"/>
			<rect x="3625.4" y="1459.6" class="st12" width="49.7" height="165.9"/>
			<rect x="3675.1" y="1459.6" class="st12" width="49.7" height="165.9"/>
			<rect x="3217.7" y="1733.2" class="st12" width="49.7" height="165.9"/>
			<rect x="3267.4" y="1733.2" class="st12" width="49.7" height="165.9"/>
			<rect x="3317.2" y="1733.2" class="st12" width="49.7" height="165.9"/>
			<rect x="3366.9" y="1733.2" class="st12" width="49.7" height="165.9"/>
			<rect x="3416.7" y="1733.2" class="st12" width="49.7" height="165.9"/>
			<polygon class="st12" points="3539.3,1337.4 3492.6,1353.8 3432.2,1198.2 3478.8,1181.8 			"/>
			<polygon class="st12" points="3592.8,1337.4 3546.1,1353.8 3485.7,1198.2 3532.4,1181.8 			"/>
			<polygon class="st12" points="3691.3,1322.2 3651.6,1350.8 3546.5,1218.3 3586.2,1189.8 			"/>
			<ellipse class="st12" cx="3619.6" cy="1781.3" rx="74.6" ry="71"/>
			<path class="st13" d="M3619.6,1866.6c-49.6,0-89.7-38.2-89.7-85.4s40.2-85.4,89.7-85.4"/>
			<rect x="3562.9" y="1884.9" class="st12" width="107.9" height="14.2"/>
			<rect x="3612.6" y="1847.3" class="st12" width="7" height="40.6"/>
			<path class="st5" d="M1207.7,2162.9c0,0,107.8-5.8,107.9-27.7c0.1-17-65.8-2.6-65.8-2.6s72.1-20.9,105.4-38
				c7.3-3.8,14.8-7.8,19.9-14.2s7.3-15.9,3.2-23c-5.6-9.6-19.1-10.4-30.1-9.1c-44.4,5.4-75.6,29.1-115.5,49.2
				c29.3-14.7,55.3-33.5,79.6-55.3c22.4-20,48.5-38.8,63.4-65.6c9.4-16.8,13.1-41.6-3.5-55.3c-16.1-13.4-39.1-7.1-56.8-0.9
				c-47.4,16.7-89,49.7-116.3,91.8c7-19.7,12.5-39.9,16.4-60.5c1.6-8.3,2.1-18.5-4.7-23.4c-8.9-6.3-20.7,2.2-27.6,10.6
				c-16.8,20.6-29.4,44.1-37.4,69.5c5.4-56.6,10.8-114.3-1.5-169.7c-2.8-12.7-6.7-25.5-14.6-35.8s-20.6-17.7-33.5-16.3
				c-12.2,1.3-22.3,10-30.5,19.2c-55.2,61.7-57.4,154.3-5.3,218.6c-13.2-13.8-28-25.9-44.1-36.1c-3.6-2.3-8.9-4.2-11.6-0.9
				c-1.4,1.7-1.4,4.1-1.2,6.3c2.5,26.9,20.5,49.4,37.8,70.2c-35-40.9-90.1-63.7-143.8-59.5c-6.5,0.5-13.8,1.9-17.1,7.6
				c-1.9,3.3-2,7.2-1.6,11c2.9,27,26.7,46.5,50.1,60.3c19.7,11.5,40.4,21.2,61.1,30.8c-11.8-1.7-23.8-2.1-35.8-1.3
				c-2.7,0.2-5.8,0.6-7.4,2.8c-3.1,4.1,1.3,9.6,5.5,12.6c30.3,21.7,67.2,32.1,104.3,29.3"/>
			
				<linearGradient id="SVGID_2_" gradientUnits="userSpaceOnUse" x1="1414.8171" y1="1190.4777" x2="1414.8171" y2="889.8877" gradientTransform="matrix(0.9992 -3.960861e-02 -3.960861e-02 -0.9992 -216.6619 3120.8406)">
				<stop  offset="0.37" style="stop-color:#86CF94"/>
				<stop  offset="0.99" style="stop-color:#008166"/>
			</linearGradient>
			<path class="st14" d="M1330,1961.7c1.3-1,2.6,1.2,1.3,2.1c-34.3,25.8-65.8,55.1-94,87.5c-28.3,32.8-50.9,68.6-73,105.7
				c-0.3,0.6-1.1,0.7-1.7,0.4c-0.5-0.3-0.7-1-0.5-1.5C1198.9,2079,1261.4,2011.3,1330,1961.7L1330,1961.7z M1174.9,1989.5
				c-19.7,50.4-31.5,114-27.6,168.3c0,0.6,0.5,1.1,1.1,1c0.6,0,1.1-0.5,1-1.1c0.9-54.6,9-115.8,28.3-167.1
				C1178.4,1989,1175.6,1987.9,1174.9,1989.5z M1106.7,1878.1c-9.3,92.6-1.8,191.3,23,281.1c0.4,1.5,2.6,0.7,2.3-0.7
				c-9.4-47.1-17.9-94.1-21.8-142c-3.8-46.1-3.4-92-1.8-138.2C1108.3,1877.3,1106.8,1877.2,1106.7,1878.1L1106.7,1878.1z
				 M1023,2016.4c27.8,39.5,58.6,112.6,95.2,144.5c0.7,0.4,1.6,0.2,2.1-0.5c0.3-0.5,0.3-1.2-0.1-1.7c-33-36.3-65.4-104.4-95-143.7
				C1024.2,2013.7,1021.9,2015,1023,2016.4L1023,2016.4z M1322.8,2077.7c-55.2,24.9-112,54.1-158.8,93c-1.4,1.2,0,3.7,1.6,2.6
				c51.5-34.2,101.3-67.8,157.9-93.3C1324.9,2079.3,1324.2,2077,1322.8,2077.7L1322.8,2077.7z M979.7,2070.9
				c40.2,24,83.1,75.2,126.9,92c1.4,0.5,2.5-1.4,1.1-2.1c-42.4-20.8-85.8-68.5-126.9-92C979.5,2068,978.3,2070.1,979.7,2070.9
				L979.7,2070.9z"/>
			<rect x="1030.4" y="2156.5" class="st0" width="235.1" height="196.6"/>
			<rect x="1219.3" y="2156.5" class="st6" width="46.2" height="196.6"/>
			<path class="st0" d="M1962.7,568.6H2970c28.4,0,51.5,23.1,51.5,51.5V1393c0,28.4-23.1,51.5-51.5,51.5H1962.7
				c-28.4,0-51.5-23.1-51.5-51.5V620.1C1911.2,591.7,1934.3,568.6,1962.7,568.6z"/>
			
				<linearGradient id="SVGID_3_" gradientUnits="userSpaceOnUse" x1="2456.4302" y1="2701.25" x2="2456.4302" y2="1564.8" gradientTransform="matrix(1 0 0 -1 0 3120)">
				<stop  offset="0" style="stop-color:#B0D8FF"/>
				<stop  offset="2.000000e-02" style="stop-color:#B3D9FF"/>
				<stop  offset="0.15" style="stop-color:#C4E1FF"/>
				<stop  offset="0.3" style="stop-color:#D1E7FF"/>
				<stop  offset="0.51" style="stop-color:#D8EAFF"/>
				<stop  offset="1" style="stop-color:#DAEBFF"/>
			</linearGradient>
			<path class="st15" d="M1961.7,589.7h989.6c27.8,0,50.4,22.6,50.4,50.4v754c0,27.8-22.6,50.4-50.4,50.4h-989.6
				c-27.8,0-50.4-22.6-50.4-50.4v-754C1911.2,612.3,1933.8,589.7,1961.7,589.7z"/>
			<path class="st5" d="M2223.8,678h-122.5c-4.2,0-7.6-4-7.6-9l0,0c0-5,3.4-9,7.6-9h122.5c4.2,0,7.6,4,7.6,9l0,0
				C2231.5,674,2228.1,678,2223.8,678z"/>
			<path class="st16" d="M2343.2,758.6h-207.6c-4.2,0-7.6-4-7.6-9l0,0c0-5,3.4-9,7.6-9h207.6c4.2,0,7.6,4,7.6,9l0,0
				C2350.9,754.6,2347.4,758.6,2343.2,758.6z"/>
			<path class="st5" d="M2427,758.6h316.9c4.2,0,7.6-4,7.6-9l0,0c0-5-3.4-9-7.6-9H2427c-4.2,0-7.6,4-7.6,9l0,0
				C2419.3,754.6,2422.7,758.6,2427,758.6z"/>
			<path class="st16" d="M2343.2,839.2h-207.6c-4.2,0-7.6-4-7.6-9l0,0c0-5,3.4-9,7.6-9h207.6c4.2,0,7.6,4,7.6,9l0,0
				C2350.9,835.2,2347.4,839.2,2343.2,839.2z"/>
			<path class="st5" d="M2309,919.8h-207.7c-4.2,0-7.6-4-7.6-9l0,0c0-5,3.4-9,7.6-9H2309c4.2,0,7.6,4,7.6,9l0,0
				C2316.6,915.8,2313.2,919.8,2309,919.8z"/>
			<path class="st16" d="M2749.3,919.8h-356.6c-4.2,0-7.6-4-7.6-9l0,0c0-5,3.4-9,7.6-9h356.6c4.2,0,7.6,4,7.6,9l0,0
				C2756.9,915.8,2753.5,919.8,2749.3,919.8z"/>
			<path class="st16" d="M2522.7,839.2h-104.9c-4.2,0-7.6-4-7.6-9l0,0c0-5,3.4-9,7.6-9h104.9c4.2,0,7.6,4,7.6,9l0,0
				C2530.4,835.2,2527,839.2,2522.7,839.2z"/>
			<path class="st16" d="M2707,839.2h-105c-4.2,0-7.6-4-7.6-9l0,0c0-5,3.4-9,7.6-9h105c4.2,0,7.6,4,7.6,9l0,0
				C2714.6,835.2,2711.2,839.2,2707,839.2z"/>
			<path class="st16" d="M2240.3,1000.4h-136.4c-4.2,0-7.6-4-7.6-9l0,0c0-5,3.4-9,7.6-9h136.4c4.2,0,7.6,4,7.6,9l0,0
				C2247.9,996.4,2244.5,1000.4,2240.3,1000.4z"/>
			<path class="st5" d="M2523.1,1000.4h-207.6c-4.2,0-7.6-4-7.6-9l0,0c0-5,3.4-9,7.6-9h207.6c4.2,0,7.6,4,7.6,9l0,0
				C2530.8,996.4,2527.4,1000.4,2523.1,1000.4z"/>
			<path class="st16" d="M2674.6,1000.4H2597c-4.2,0-7.6-4-7.6-9l0,0c0-5,3.4-9,7.6-9h77.5c4.2,0,7.6,4,7.6,9l0,0
				C2682.2,996.4,2678.8,1000.4,2674.6,1000.4z"/>
			<path class="st16" d="M2368.7,1081H2247c-4.2,0-7.6-4-7.6-9l0,0c0-5,3.4-9,7.6-9h121.6c4.2,0,7.6,4,7.6,9l0,0
				C2376.3,1077,2372.9,1081,2368.7,1081z"/>
			<path class="st16" d="M2659.7,1081H2452c-4.2,0-7.6-4-7.6-9l0,0c0-5,3.4-9,7.6-9h207.6c4.2,0,7.6,4,7.6,9l0,0
				C2667.3,1077,2663.9,1081,2659.7,1081z"/>
			<path class="st16" d="M2593.1,1161.6h-389.1c-4.2,0-7.6-4-7.6-9l0,0c0-5,3.4-9,7.6-9h389.1c4.2,0,7.6,4,7.6,9l0,0
				C2600.8,1157.6,2597.3,1161.6,2593.1,1161.6z"/>
			<path class="st16" d="M2884.1,1161.6h-235c-4.2,0-7.6-4-7.6-9l0,0c0-5,3.4-9,7.6-9h235c4.2,0,7.6,4,7.6,9l0,0
				C2891.8,1157.6,2888.3,1161.6,2884.1,1161.6z"/>
			<path class="st16" d="M2309,1242.2h-207.7c-4.2,0-7.6-4-7.6-9l0,0c0-5,3.4-9,7.6-9H2309c4.2,0,7.6,4,7.6,9l0,0
				C2316.6,1238.1,2313.2,1242.2,2309,1242.2z"/>
			<path class="st5" d="M2560.2,1242.2h-207.6c-4.2,0-7.6-4-7.6-9l0,0c0-5,3.4-9,7.6-9h207.6c4.2,0,7.6,4,7.6,9l0,0
				C2567.9,1238.1,2564.5,1242.2,2560.2,1242.2z"/>
			<path class="st16" d="M2580.2,1322.8h-315.4c-4.2,0-7.6-4-7.6-9l0,0c0-5,3.4-9,7.6-9h315.4c4.2,0,7.6,4,7.6,9l0,0
				C2587.9,1318.7,2584.4,1322.8,2580.2,1322.8z"/>
			<rect x="1992.2" y="660.1" class="st16" width="15.3" height="18"/>
			<rect x="1992.2" y="740.7" class="st16" width="15.3" height="18"/>
			<rect x="1992.2" y="821.2" class="st16" width="15.3" height="18"/>
			<rect x="1992.2" y="901.8" class="st16" width="15.3" height="18"/>
			<rect x="1992.2" y="982.4" class="st16" width="15.3" height="18"/>
			<rect x="1992.2" y="1063" class="st16" width="15.3" height="18"/>
			<rect x="1992.2" y="1103.3" class="st16" width="15.3" height="18"/>
			<rect x="1992.2" y="1143.6" class="st16" width="15.3" height="18"/>
			<rect x="1992.2" y="1183.9" class="st16" width="15.3" height="18"/>
			<rect x="1992.2" y="1224.2" class="st16" width="15.3" height="18"/>
			<rect x="1992.2" y="1264.5" class="st16" width="15.3" height="18"/>
			<rect x="1992.2" y="1304.8" class="st16" width="15.3" height="18"/>
			<rect x="1992.2" y="1345.1" class="st16" width="15.3" height="18"/>
			<path class="st16" d="M2803.8,1359.4l-55.7-27.8c-1.8-1-2.9-3-2.9-5.1v-6c-0.1-2.1,1-4,2.9-5.1l55.7-27.8
				c3.1-1.5,6.5,1.1,6.5,5.1v2.1c0.1,2.1-1,4.1-2.9,5.1l-38.2,18.5c-3.9,1.9-3.9,8.3,0,10.2l38.2,18.5c1.8,1,3,3,2.9,5.1v2.1
				C2810.3,1358.3,2806.9,1361,2803.8,1359.4z"/>
			<path class="st16" d="M2854.3,1271.9l-25.7,104.7c-0.4,2.2-2.2,3.9-4.5,4l0,0c-3.1,0-5.4-3.5-4.5-7l25.7-104.7
				c0.4-2.2,2.2-3.9,4.5-4l0,0C2852.9,1264.9,2855.2,1268.4,2854.3,1271.9z"/>
			<path class="st16" d="M2925.8,1331.6l-55.7,27.8c-3.1,1.5-6.5-1.1-6.5-5.1v-2.1c-0.1-2.1,1-4.1,2.9-5.1l38.3-18.5
				c3.9-1.9,3.9-8.3,0-10.2l-38.3-18.5c-1.8-1-3-3-2.9-5.1v-2.1c0-3.9,3.4-6.6,6.5-5.1l55.7,27.8c1.8,1,2.9,3,2.8,5.1v6
				C2928.7,1328.6,2927.6,1330.6,2925.8,1331.6z"/>
			<path class="st0" d="M2093.8,2008.4v133.7h44.1v-120.3C2125.3,2012.2,2109.6,2007.4,2093.8,2008.4z"/>
			<g>
				<defs>
					<path id="SVGID_4_" d="M2093.8,2008.4v133.7h44.1v-120.3C2125.3,2012.2,2109.6,2007.4,2093.8,2008.4z"/>
				</defs>
				<clipPath id="SVGID_5_">
					<use xlink:href="#SVGID_4_"  style="overflow:visible;"/>
				</clipPath>
				<g class="st17">
					<path class="st18" d="M2083.6,2033.6c0,0,38,6.7,59.7,47.1s39.8-4.7,35.6-23.2s-2-37.4-13.2-51.6s-32.6-34.4-61.7-26.7
						s-33,3.4-31.4,20.9s4.4,36.1,4.4,36.1"/>
				</g>
			</g>
			<ellipse class="st19" cx="1955.4" cy="2352.2" rx="34.1" ry="37.6"/>
			<path class="st19" d="M2152,2386c0,20.8-15.3,37.6-34.1,37.6s-34.1-16.9-34.1-37.6s15.3-37.6,34.1-37.6S2152,2365.2,2152,2386z"
				/>
			<path class="st19" d="M2312.9,2352.2c0,20.8-15.3,37.6-34.1,37.6s-34.1-16.9-34.1-37.6s15.3-37.6,34.1-37.6
				S2312.9,2331.4,2312.9,2352.2z"/>
			<path class="st20" d="M2085.8,2141.4c0,0,29.7-12.1,61.3,0l0.9,42.6l154.7,127.6v30.3h-45.7l-0.6-23.3l-118.4-92.6l0.7,115.9
				l-5.9,27.2h-30.8l-5.7-26.9l-1.3-112.9l-117.8,88.4l-0.5,22.6l-42.3,0.3v-32.1l151.7-123.9V2159L2085.8,2141.4z"/>
			<path class="st16" d="M2196.1,1351.6c0,0,50.3-17.8,125.2,0s119.6,92.4,122.1,152.7s-24.5,430.7-123.6,524.3
				c-99.1,93.6-349.1,47.5-400.2,28s-88.8-96.4-88.8-96.4l256.1-182.2l13.6-390.9L2196.1,1351.6z"/>
			<g>
				<defs>
					<path id="SVGID_6_" d="M2196.1,1351.6c0,0,50.3-17.8,125.2,0s119.6,92.4,122.1,152.7s-24.5,430.7-123.6,524.3
						c-99.1,93.6-349.1,47.5-400.2,28s-88.8-96.4-88.8-96.4l256.1-182.2l13.6-390.9L2196.1,1351.6z"/>
				</defs>
				<clipPath id="SVGID_7_">
					<use xlink:href="#SVGID_6_"  style="overflow:visible;"/>
				</clipPath>
				<g class="st21">
					<path class="st22" d="M2205.7,1333.4c0,0,47.5,8.1,72.7,66.9s19.8,146.4,13.2,260.1s26,116.5,29.7,195.7
						s-14.9,153.8-119.3,189.2s-192,51.3-326.1,29.9l-99.7-113.7l48.5-221.8c0,0,90.2-90.5,101.5-158.5s98.8-237.4,134.3-262.1
						S2205.7,1333.4,2205.7,1333.4z"/>
				</g>
			</g>
			<path class="st23" d="M2029.1,1332.5l-6.1-0.5c0,0-62.4,1.9-82,26.1s-33,137.9-33,137.9l38.7,291.2c0,0,23.3,41,141.6,41
				c118.3,0,164.9-48.4,164.9-48.4l-11-136.3c0,0,19.8-30.9,23.1-64s-29.4-209.7-64.8-235.3s-113.7-14.5-113.7-14.5L2029.1,1332.5z"
				/>
			<g>
				<defs>
					<path id="SVGID_8_" d="M2029.1,1332.5l-6.1-0.5c0,0-62.4,1.9-82,26.1s-33,137.9-33,137.9l38.7,291.2c0,0,23.3,41,141.6,41
						c118.3,0,164.9-48.4,164.9-48.4l-11-136.3c0,0,19.8-30.9,23.1-64s-29.4-209.7-64.8-235.3s-113.7-14.5-113.7-14.5L2029.1,1332.5
						z"/>
				</defs>
				<clipPath id="SVGID_9_">
					<use xlink:href="#SVGID_8_"  style="overflow:visible;"/>
				</clipPath>
				<g class="st24">
					<path class="st25" d="M2165.6,1387.5c0,0-16.3,19.1-10.3,54s31.7,83.9,21.9,102.5s-28.6,49.7-24.5,57s12.3,11.3,12.3,11.3
						l53.4,33.8c0,0,14.1,3.9,23.8-2.8l0,0l6.6,1.9l-157,84.6l-18-26.1c0,0,57.1-61.7,62.2-82.7s1.4-22.5,13.1-43.4
						s23.3-34.4,15.8-57.5s-21.2-60.6-18.4-82.7S2150.9,1401.7,2165.6,1387.5z"/>
					<path class="st25" d="M1958.8,1390.1c0,0-9.8,41.2,0.6,91.4l37.2,180l6.4-3.3C2002.9,1658.3,1958.8,1436.9,1958.8,1390.1z"/>
				</g>
			</g>
			<path class="st23" d="M1817,2338.9c0,0-3.7,30-3.7,54.1s16.5,43.3,8.1,65.9s-77.2,23.3-126.3,29.1s-92.4-4.7-86.2-41.6
				s85.9-22.3,117.1-68.1s21.8-53.3,21.8-53.3L1817,2338.9z"/>
			<path class="st23" d="M2079.8,2362.1c0,0-3.7,30-3.6,54.1s16.5,43.3,8.1,65.9s-77.3,23.3-126.3,29.1s-92.4-4.7-86.2-41.5
				s85.9-22.4,117.1-68.1s21.8-53.3,21.8-53.3L2079.8,2362.1z"/>
			<path class="st26" d="M1953.8,1781.9l-7.2,5.3c0,0-212.8,68.7-232.6,133.3s11.8,435.2,11.8,435.2s57.8,45.6,109-4.7l4.2-346.2
				l215-79.7l62.2,1.9c0,0,74.6-53.1,79.2-56.8s63.4-45.7,63.4-45.7l-36.3-59.6L1953.8,1781.9z"/>
			<g>
				<defs>
					<path id="SVGID_10_" d="M1953.8,1781.9l-7.2,5.3c0,0-212.8,68.7-232.6,133.3s11.8,435.2,11.8,435.2s57.8,45.6,109-4.7
						l4.2-346.2l215-79.7l62.2,1.9c0,0,74.6-53.1,79.2-56.8s63.4-45.7,63.4-45.7l-36.3-59.6L1953.8,1781.9z"/>
				</defs>
				<clipPath id="SVGID_11_">
					<use xlink:href="#SVGID_10_"  style="overflow:visible;"/>
				</clipPath>
				<g class="st27">
					<path class="st28" d="M1707.4,1881.9c0,0,86.4,19.5,102.2,126.4s34.5,185.8,34.5,185.8l44-157.2l153.6-82.4l95.4-75l48.2-110.7
						l-76.4-40.2l-232,19.6l-122.1,63.4L1707.4,1881.9z"/>
				</g>
			</g>
			<path class="st26" d="M2105,1816.1c0,0-112.5,96-121.9,166.8c-9.5,70.8,0,383,0,383s72.5,48.4,121.9,0c0,0-20.5-285.1,23.3-333.6
				s121.1-92.3,130.5-164s-5.6-88.5-5.6-88.5l-74.7-12.1L2105,1816.1z"/>
			<g>
				<defs>
					<path id="SVGID_12_" d="M2105,1816.1c0,0-112.5,96-121.9,166.8c-9.5,70.8,0,383,0,383s72.5,48.4,121.9,0
						c0,0-20.5-285.1,23.3-333.6s121.1-92.3,130.5-164s-5.6-88.5-5.6-88.5l-74.7-12.1L2105,1816.1z"/>
				</defs>
				<clipPath id="SVGID_13_">
					<use xlink:href="#SVGID_12_"  style="overflow:visible;"/>
				</clipPath>
				<g class="st29">
					<path class="st28" d="M1963.4,2126.4c2.8-8.4,41.9-167.6,204.1-130.6l0,0l50.9-24.4c0,0,66.7-55.3,71.6-62.1s0.7-63.4,1.6-70.8
						s0-90.1,0-90.1l-321-7.5l4.3,114.9l-11.5,175.1V2126.4z"/>
				</g>
			</g>
			<path class="st19" d="M1247.8,1783.2v745.1c0,2.9-2.4,5.3-5.3,5.3h-14.5c-2.9,0-5.3-2.4-5.3-5.3v-745.1c0-2.9,2.4-5.3,5.3-5.3
				h14.5C1245.4,1777.9,1247.8,1780.3,1247.8,1783.2z"/>
			<path class="st19" d="M2485.3,1783.2v745.1c0,2.9-2.4,5.3-5.3,5.3h-14.5c-2.9,0-5.3-2.4-5.3-5.3v-745.1c0-2.9,2.4-5.3,5.3-5.3
				h14.5C2482.9,1777.9,2485.3,1780.3,2485.3,1783.2z"/>
			<path class="st19" d="M1511.1,1771.5l45.9,663.5c0.2,2.8-1.9,5.2-4.7,5.4l-15.1,1c-2.8,0.2-5.2-1.9-5.4-4.7l-45.9-663.5
				c-0.2-2.8,1.9-5.2,4.7-5.4l15.1-1C1508.5,1766.6,1510.9,1768.7,1511.1,1771.5z"/>
			<path class="st19" d="M2708.7,1771.5l45.9,663.5c0.2,2.8-1.9,5.2-4.7,5.4l-15.1,1c-2.8,0.2-5.2-1.9-5.4-4.7l-45.9-663.5
				c-0.2-2.8,1.9-5.2,4.7-5.4l15.1-1C2706.1,1766.6,2708.5,1768.7,2708.7,1771.5z"/>
			<path class="st20" d="M1183.2,1752.7h1560.5c6,0,10.9,4.9,10.9,10.9v28.6c0,6-4.9,10.9-10.9,10.9H1183.2c-6,0-10.9-4.9-10.9-10.9
				v-28.6C1172.3,1757.6,1177.2,1752.7,1183.2,1752.7z"/>
			<rect x="2312.6" y="1633.9" class="st23" width="326.6" height="39.6"/>
			<rect x="2321.2" y="1673.5" class="st5" width="326.6" height="39.6"/>
			<rect x="2305.4" y="1713.1" class="st30" width="326.6" height="39.6"/>
			<path class="st31" d="M1535,1263l17.8,24.2c8.1-17.3,25.2-25,35.9-28.3l-24.6-18.7c-3.2,0-6.5,0.5-9.6,1.6
				c-6.6,2.2-15,7.3-19.1,19.5C1535.3,1261.9,1535.1,1262.4,1535,1263z"/>
			<path class="st32" d="M1291.7,1468.8c0,11.2,7.7,20.9,18.6,23.4c1.8,0.4,3.6,0.6,5.4,0.6c1.6,0,3.1-0.2,4.7-0.5
				c13-2.6,21.5-15.2,18.9-28.2c-2.6-13-15.2-21.5-28.2-18.9C1299.8,1447.4,1291.6,1457.3,1291.7,1468.8z"/>
			<path class="st32" d="M1507,1237.8c0,13.3,10.7,24,24,24c1.5,0,3.1-0.1,4.6-0.4c4.1-12.2,12.5-17.3,19.1-19.5
				c0.2-1.3,0.3-2.7,0.3-4c0-13.3-10.7-24-24-24S1507,1224.6,1507,1237.8L1507,1237.8z"/>
			<path class="st31" d="M1329.9,1449.5c2.7,2,4.9,4.5,6.6,7.4l103-113.3l21.5-23.7l31.7-34.9l24.9-27.4c-2.7-1.9-5.1-4.3-6.8-7.1
				l-29.8,32.7l-21,23.1l-22,24.2L1329.9,1449.5z"/>
			<path class="st32" d="M1279.1,1732.8v-0.5c79.6-29.4,146.9-2.4,152.4-0.2C1415.4,1736.5,1356,1749.5,1279.1,1732.8z"/>
			<path class="st31" d="M1310.3,1492.2l35.8,205.1l4.8,27.3l0.5,2.9l9.7-1.8l-0.2-1.1l-4.9-28l-35.7-204.3
				c-1.5,0.3-3.1,0.5-4.7,0.5C1313.8,1492.8,1312,1492.6,1310.3,1492.2z"/>
			<path class="st32" d="M1549.3,1299.5l24.3,54.5l4.2,9.4l36.7-31.1l33.1-30.7l19.9-18.4l-6.7-5.8l0,0l-0.2-0.1l-0.2-0.1l-61.1-26
				c-3.2,0.5-6.4,1.2-9.5,2.2c-10.8,3.3-27.8,11-35.9,28.3c-0.9,2-1.7,4-2.4,6.1C1550.3,1291.6,1549.6,1295.5,1549.3,1299.5z"/>
			<path class="st33" d="M1641.9,1343.6c24.3-22.8,34.9-50.9,23.8-62.8s-39.8-2.9-64.1,19.9s-34.9,50.9-23.8,62.8
				S1617.6,1366.4,1641.9,1343.6z"/>
			<rect x="1279.1" y="1732.8" class="st33" width="152.4" height="19.9"/>
			<path class="st19" d="M2839.4,2233.8c0,1.8-0.3,3.5-1,5.2c-7.7,19.5-58.2,34.6-119.4,34.6c-61.9,0-112.9-15.4-119.6-35.3
				l-0.8-4.5c0-22,53.9-39.8,120.4-39.8S2839.4,2211.9,2839.4,2233.8z"/>
			<path class="st20" d="M2838.4,2239l-41.5,244.5c-75.7,43.1-155.8,0-155.8,0l-41.8-245.2c6.7,19.9,57.7,35.3,119.6,35.3
				C2780.2,2273.6,2830.7,2258.5,2838.4,2239L2838.4,2239z"/>
			<path class="st34" d="M2021.3,1269.6c0,0,10.2,21.4,1.8,62.4c0,0,6.5,20,29.4,19.6s34.5-22,34.5-22s-10.9-17.5-6.4-54.6l0.3-13.8
				l-28.9-19.6L2021.3,1269.6z"/>
			<g>
				<defs>
					<path id="SVGID_14_" d="M2021.3,1269.6c0,0,10.2,21.4,1.8,62.4c0,0,6.5,20,29.4,19.6s34.5-22,34.5-22s-10.9-17.5-6.4-54.6
						l0.3-13.8l-28.9-19.6L2021.3,1269.6z"/>
				</defs>
				<clipPath id="SVGID_15_">
					<use xlink:href="#SVGID_14_"  style="overflow:visible;"/>
				</clipPath>
				<g class="st35">
					<path class="st36" d="M2019.9,1296.6c0,0,40.1-7.9,74.9,19.4c0,0,2.3-59,3.9-61s-64.5-31.5-64.5-31.5s-23.3,13.9-23.9,25
						S2019.9,1296.6,2019.9,1296.6z"/>
				</g>
			</g>
			<path class="st26" d="M1955.6,1157c0,0-59.3-2.1-26.1-121.7c0,0,30.4,22.9,84.5,26c54,3.1,114.3,1.9,121.8,98.2
				c3.1,62.1-55.3,115.5-55.3,115.5l-52.8-33.5L1955.6,1157z"/>
			<g>
				<defs>
					<path id="SVGID_16_" d="M1955.6,1157c0,0-59.3-2.1-26.1-121.7c0,0,30.4,22.9,84.5,26c54,3.1,114.3,1.9,121.8,98.2
						c3.1,62.1-55.3,115.5-55.3,115.5l-52.8-33.5L1955.6,1157z"/>
				</defs>
				<clipPath id="SVGID_17_">
					<use xlink:href="#SVGID_16_"  style="overflow:visible;"/>
				</clipPath>
				<g class="st37">
					<path class="st38" d="M1912.6,1115.8c0,0,0.9,6.9,27,0s59.2-17.8,102.5,10.2s59.4,86.3,93.8,79.3l-25.8,55l-56.1,36.3
						c0,0-89.4-25.9-92.9-35.6s-29-69.8-32.7-79.1s-9-32.1-9-32.1L1912.6,1115.8z"/>
				</g>
			</g>
			<path class="st34" d="M1953.2,1141.8c0,0-16.2,135.4,33.5,143.2s82.6-49.1,82.6-49.1s24.9-3.1,22.4-29.5s-22-16.5-22-16.5
				s-22.1-9.6-21.7-32.9c0,0-26.7,6.2-38.8-18.3c0,0-20.2,14-40.7-7.5C1968.4,1131.2,1963.1,1144,1953.2,1141.8z"/>
			<g>
				<defs>
					<path id="SVGID_18_" d="M1953.2,1141.8c0,0-16.2,135.4,33.5,143.2s82.6-49.1,82.6-49.1s24.9-3.1,22.4-29.5s-22-16.5-22-16.5
						s-22.1-9.6-21.7-32.9c0,0-26.7,6.2-38.8-18.3c0,0-20.2,14-40.7-7.5C1968.4,1131.2,1963.1,1144,1953.2,1141.8z"/>
				</defs>
				<clipPath id="SVGID_19_">
					<use xlink:href="#SVGID_18_"  style="overflow:visible;"/>
				</clipPath>
				<g class="st39">
					<path class="st36" d="M1943.8,1159.4c20.6,1.9,41,4.9,61.3,9.1c30.1,6.5,45.9,50.3,77.8,45s18.2-22.7,18.2-22.7l-29.8-40.4
						l-69.7-22.6l-42.2-7l-17.2,14L1943.8,1159.4z"/>
				</g>
			</g>
			<path class="st34" d="M2165,1612.3c0,0-51,53.7-89.8,67.4s-57.4-0.2-72.9,31.3l-3.1,6.6c0,0,55.9,18,96.3-1.9l123-69.6
				L2165,1612.3z"/>
			<rect x="1707.4" y="1719.2" class="st40" width="460" height="33.6"/>
			<polygon class="st0" points="2045.3,1752.7 1644.6,1752.7 1586.6,1471.9 1987.3,1471.9 			"/>
			<polygon class="st40" points="2015.3,1752.7 1614.6,1752.7 1556.6,1471.9 1957.3,1471.9 			"/>
			<rect x="2749.7" y="1605" class="st6" width="199.7" height="88.3"/>
			<rect x="2830.4" y="1693.3" class="st4" width="199.7" height="88.3"/>
			
				<ellipse transform="matrix(0.9901 -0.1404 0.1404 0.9901 -205.5219 264.216)" class="st1" cx="1770" cy="1588.9" rx="37.7" ry="41.5"/>
		</g>
	</g>
</g>
</svg>
