<svg xmlns="http://www.w3.org/2000/svg" viewBox="0 0 1440 320">
    <path class="opacity-20 translate-top-2" fill="currentColor" fill-opacity="1"
          d="M0,160L60,186.7C120,213,240,267,360,245.3C480,224,600,128,720,106.7C840,85,960,139,1080,149.3C1200,160,1320,128,1380,112L1440,96L1440,320L1380,320C1320,320,1200,320,1080,320C960,320,840,320,720,320C600,320,480,320,360,320C240,320,120,320,60,320L0,320Z"></path>
    <path class="opacity-30 translate-top-1" fill="currentColor" fill-opacity="1"
          d="M0,160L60,186.7C120,213,240,267,360,245.3C480,224,600,128,720,106.7C840,85,960,139,1080,149.3C1200,160,1320,128,1380,112L1440,96L1440,320L1380,320C1320,320,1200,320,1080,320C960,320,840,320,720,320C600,320,480,320,360,320C240,320,120,320,60,320L0,320Z"></path>
    <path fill="currentColor" fill-opacity="1"
          d="M0,160L60,186.7C120,213,240,267,360,245.3C480,224,600,128,720,106.7C840,85,960,139,1080,149.3C1200,160,1320,128,1380,112L1440,96L1440,320L1380,320C1320,320,1200,320,1080,320C960,320,840,320,720,320C600,320,480,320,360,320C240,320,120,320,60,320L0,320Z"></path>
</svg>
