<?xml version="1.0" encoding="UTF-8"?>
<svg width="900px" height="900px" viewBox="0 0 900 900" version="1.1" xmlns="http://www.w3.org/2000/svg" xmlns:xlink="http://www.w3.org/1999/xlink">
    <!-- Generator: Sketch 50.2 (55047) - http://www.bohemiancoding.com/sketch -->
    <title>ALC - Avatar - Beijing Chapter</title>
    <desc>Created with Sketch.</desc>
    <defs></defs>
    <g id="ALC---Avatar---Beijing-Chapter" stroke="none" stroke-width="1" fill="none" fill-rule="evenodd">
        <g id="ALC---Avatar--Template">
            <path d="M184,797.020836 C78.8742543,717.115281 11,590.734081 11,448.5 C11,206.875422 206.875422,11 448.5,11 C690.124578,11 886,206.875422 886,448.5 C886,588.00951 820.701177,712.267663 719,792.377988 L719,900 L184,900 L184,797.020836 Z" id="White-Background" fill="#FFFFFF" fill-rule="evenodd"></path>
            <path d="M11,448.5 C4.40474016,206.948608 206.875422,11 448.5,11 C690.124578,11 887.649283,206.879999 886,448.5 C885,595 820,720 715,800 L718,704 L595,720 C670,670 740,548.577144 740,449.5 C740,289.613565 610.386435,160 450.5,160 C290.613565,160 161,289.613565 161,449.5 C161,548.662819 230,670 305,720 L185,704 C184.388802,767.483816 184.388802,799.483816 185,800 C80,720 15,595 11,448.5 Z" id="Combined-Shape" fill="#6D6E71" fill-rule="evenodd"></path>
            <g id="ALC---Icon" transform="translate(241.000000, 222.000000)">
                <path d="M132.085958,352.989939 C115.952323,371.09336 93.0941497,396.430047 63.5114383,429 C31.651721,360.863862 12.4704265,318.222575 5.96755469,301.076139 C-0.535317106,283.929704 -1.72353192,266.73491 2.40291025,249.49176 C10.4558896,210.839714 42.5732817,182.895183 80.1595966,179.375431 C80.8902091,188.554212 82.4930665,197.816679 84.9681689,207.162833 C90.9831457,229.875793 106.689074,278.484823 132.085953,352.989922 L132.085958,352.989939 Z" id="Combined-Shape" fill="#9E2165" fill-rule="evenodd"></path>
                <path d="M373.611255,127.392103 C404.756022,151.174607 422.807592,190.300104 418.320359,231.689959 C416.318129,256.027289 407.977373,276.803594 393.432541,294.040373 C378.887709,311.277153 338.409496,356.263695 271.997902,429 C259.95399,403.376918 249.296519,380.527263 240.025488,360.451037 C288.666188,316.845793 320.151732,288.149146 334.482118,274.361095 C355.596036,254.046238 369.184086,228.31308 375.075673,197.115585 C380.203262,173.351059 379.400618,149.560427 373.611253,127.392102 L373.611255,127.392103 Z" id="Combined-Shape" fill="#F79A25" fill-rule="evenodd"></path>
                <path d="M161.576382,430.477151 C161.687003,430.135058 161.779932,429.780591 161.856483,429.414741 C162.623643,424.127434 167.770082,389.422228 177.014741,343.454865 C177.277249,342.149037 177.54633,340.834304 177.814312,339.511745 C177.887593,339.142314 177.968548,338.771804 178.042929,338.410198 C179.024079,333.587622 180.053418,328.662504 181.123273,323.635924 C181.335665,322.648841 181.548058,321.661759 182,321 C183.020921,316.371232 184.505864,311.095695 185.596435,306.336566 C185.898684,305.016022 186.206561,303.678611 186.515545,302.349082 C187.885683,296.449436 189.309698,290.477913 190.780855,284.443498 C192.192245,278.666664 193.661944,272.849484 195.174266,266.99416 C196.686588,261.138837 198.2527,255.267916 199.864759,249.382499 C201.502736,243.396982 203.196719,237.411632 204.934345,231.4523 C206.657306,225.559335 208.430645,219.683405 210.250952,213.85714 C210.907254,211.755366 211.572508,209.660371 212.238868,207.57326 C213.110699,204.850015 220.257537,184.399817 222.262514,178.985211 C224.402706,173.216852 226.598799,167.56019 228.846203,162.03978 C231.176533,156.308461 233.568257,150.727918 236.017882,145.330522 C236.158591,145.015849 236.306085,144.692251 236.445695,144.369762 C238.754237,139.30328 241.115419,134.403301 243.531831,129.694808 C248.828562,119.159971 254.362888,109.576435 260.136779,101.242559 C260.579563,100.583057 260.814935,100.267484 260.814935,100.267484 C260.588512,100.589871 260.363202,100.920172 260.136779,101.242559 C258.314291,103.953687 252.909593,112.4909 245,129 C242.800621,133.656711 239.975942,139.42097 237.45931,145.36672 C237.325457,145.672714 237.193803,145.994352 237.06105,146.308168 C234.890418,151.455429 232.603338,157.089714 230.236837,163.245706 C228.186092,168.559594 226.075554,174.24884 223.91072,180.352558 C222.020939,185.667756 216.268647,205.700092 215.766376,207.290001 C214.931707,209.943187 214.096914,212.652387 213.255256,215.42655 C212.827687,216.822578 212.409064,218.225349 211.978063,219.653858 C210.69854,223.921491 209.414234,228.32579 208.117301,232.867857 C206.526864,238.451127 204.918039,244.244971 203.307614,250.25503 C201.769492,255.98294 200.226463,261.903531 198.679627,268.024647 C197.208528,273.831133 195.73926,279.821354 194.262879,285.988566 C192.949246,291.492935 191.638671,297.132868 190.32662,302.933001 C190.262157,303.214048 190.197694,303.495095 190.141074,303.77504 C189.051579,308.594286 186.906041,318.718899 186.125587,321.994844 C185.93022,322.872127 185.742664,323.748312 185.556204,324.632286 C184.557369,329.31566 183.561668,334.078016 182.530533,339.155102 C182.388112,339.842272 182.253504,340.528343 182.111083,341.215512 C181.448492,344.493496 180.882736,347.440179 179.586163,354.14303 C183.434188,355.278051 186.948935,359.200006 190.389533,363.728054 C189.385708,358.682809 186.596509,354.198232 182.068899,351.061953 C200.016974,349.357572 214.752057,342.703983 220.870216,328.588431 C221.418034,327.328037 221.895692,326.021907 222.298812,324.638888 C219.330994,329.710176 215.127138,332.278623 206.630967,332.988202 C218.258537,325.707077 223.738372,319.520286 228.000195,309.938583 C229.011486,307.667918 229.956351,305.208032 230.897438,302.494522 C222.011856,314.575647 210.532731,319.610572 197.669018,319.555751 C201.675683,316.994952 222.549931,303.84276 230.364263,292.666295 C234.373007,286.935146 237.814703,280.355733 240.791547,272.8017 C243.008127,267.17843 244.964958,261.015692 246.701376,254.25196 C248.221982,248.34252 249.583435,241.98347 250.794804,235.125538 C248.260763,236.953605 245.272751,238.453492 241.918009,239.676935 C241.331806,239.887314 240.729918,240.099898 240.117983,240.297895 C239.506048,240.495891 238.885169,240.687145 238.254242,240.863812 C248.788093,235.015581 254.638021,225.769823 258.314281,214.941642 C255.669204,217.345288 251.284009,220.625462 245.767027,222.680763 C245.014912,222.962458 244.2416,223.207133 243.458241,223.437222 C243.258756,223.497256 243.067113,223.556188 242.874367,223.607276 C246.526899,221.430024 249.527805,219.168361 252.05109,216.637838 C252.590989,216.097982 253.112998,215.544641 253.608173,214.971072 C254.36607,214.104593 255.071401,213.205502 255.739851,212.271597 C256.167879,211.675467 256.578019,211.065852 256.969166,210.434907 C257.889686,208.961599 258.725294,207.39623 259.480525,205.714163 C259.712376,205.201601 259.935282,204.682297 260.155983,204.147303 C260.424236,203.381637 260.679009,202.633864 260.927043,201.895038 C262.040989,198.554633 262.888658,195.595634 263.532786,193.009225 C263.85485,191.71602 264.127407,190.525769 264.348252,189.422782 C264.43882,188.986073 264.522649,188.558311 264.60084,188.147341 C264.827571,186.915532 265.002466,185.827003 265.124422,184.873907 C265.307907,183.448185 265.382081,182.325813 265.396203,181.515866 C265.061676,181.866867 264.672254,182.225582 264.226835,182.584168 C261.557265,184.737714 257.058168,187.003605 252.958684,188.549951 C259.02029,183.767111 261.742369,178.672221 264.480666,173.52603 C265.324837,171.867778 266.166996,170.138013 266.993576,168.354597 C269.52209,162.893789 271.916075,156.933367 273.983362,151.050768 C275.974551,145.370317 277.649123,139.782229 278.836545,134.789104 C279.587877,131.612265 280.140278,128.67877 280.449373,126.130469 C280.673468,124.271327 280.855037,121.986232 280.970048,120.107018 C281.712071,99.1143299 273.222778,90.742987 273.222778,90.742987 C273.222778,90.742987 262.014512,77.1281074 252.206433,85.0200443 C247.445236,88.845047 240.048867,98.8274875 231.546549,113.004959 C231.051709,113.814376 230.556549,114.634853 230.05201,115.467662 C227.784821,119.245373 225.443493,123.29652 223.061958,127.576485 C220.379039,132.40093 217.643244,137.535676 214.88411,142.904838 C212.341432,147.868978 209.781104,153.050795 207.243842,158.396745 C205.085399,162.948225 202.928762,167.626974 200.811157,172.411821 C200.758099,172.531075 200.449463,173.119929 200.198218,173.511777 C200.040841,173.871497 199.891307,174.230115 199.733931,174.589835 C197.526054,179.706945 195.341528,184.933307 193.226302,190.254425 C191.086352,195.627248 189.014593,201.086944 187.015545,206.608765 C185.326993,211.267057 183.698878,215.957046 182.139042,220.67763 C181.826154,221.637953 181.518892,222.581409 181.212738,223.532746 C179.303773,229.467929 177.634865,235.176458 176.164586,240.64808 C174.500514,246.846256 173.097899,252.742428 171.928781,258.308373 C171.155793,261.969871 170.483825,265.4966 169.887135,268.8761 C169.412195,271.756201 168.977575,274.638673 168.587795,277.498767 C167.656539,284.245043 166.395665,292.369187 166.227876,299.31333 C165.859052,306.992014 165.891297,314.584424 166.463359,322.887026 C161.811397,317.236045 150.83433,312.625633 150.86505,312.67718 C159.623382,322.379869 166.621152,332.25018 168.910575,342.582689 C165.142162,343.9423 159.659427,343.51574 153.188467,342.07086 C160.439476,347.173013 165.483952,348.155971 167.418985,348.338921 C161.586188,349.541742 156.034687,354.527796 150.525137,360.146412 C159.028924,355.120536 166.117464,352.607969 171.512517,353.078775 C166.893715,376.620604 162.562418,402.355104 158.437765,429.569059 C117.333747,311.037466 92.8438814,236.902057 84.9681689,207.162833 C77.0300118,177.187814 78.0639009,148.073612 88.0698363,119.820225 C112.355074,44.2130161 191.41967,0.125581747 268.353496,20.8451424 C345.287322,41.564703 391.826954,119.479448 375.075673,197.115585 C369.184086,228.31308 355.596036,254.046238 334.482118,274.361095 C313.52753,294.522653 255.892285,346.561338 161.576382,430.477151 Z" id="Combined-Shape" fill="#662F8F" fill-rule="nonzero"></path>
            </g>
            <circle id="Left-Circle" fill="#FFFFFF" fill-rule="evenodd" cx="149.5" cy="647.5" r="17.5"></circle>
            <circle id="Right-Circle" fill="#FFFFFF" fill-rule="evenodd" cx="750.5" cy="647.5" r="17.5"></circle>
            <g id="APACHE-LOCAL-COMMUNITY" stroke-width="1" fill-rule="evenodd" transform="translate(60.000000, 57.000000)" fill="#FFFFFF">
                <path d="M80.82,531.11 L89.68,530.86 L97.05,549.42 L33.14,548.04 L25.77,529.48 L71.68,485.48 L79.34,504.77 L72.69,510.59 L80.82,531.11 Z M47.68,532.16 L65.97,531.56 L61.45,520.16 L47.68,532.16 Z" id="Shape" fill-rule="nonzero"></path>
                <path d="M8.45,441.36 C11.3166667,436.566667 16.0466667,433.566667 22.64,432.36 C29.64,431.086667 35.4566667,432.166667 40.09,435.6 C44.7233333,439.033333 47.7233333,444.53 49.09,452.09 L50.53,460.09 L65.59,457.37 L69.06,476.59 L11.06,487.05 L6.14,459.85 C4.80666667,452.296667 5.57666667,446.133333 8.45,441.36 Z M36,462.73 L34.73,455.73 C34.5197823,453.908876 33.5267488,452.26964 32.01,451.24 C30.3447898,450.31367 28.3914831,450.049421 26.54,450.5 C24.6926405,450.715682 23.0043426,451.649634 21.84,453.1 C20.8292821,454.602404 20.4988866,456.461333 20.93,458.22 L22.2,465.22 L36,462.73 Z" id="Shape" fill-rule="nonzero"></path>
                <path d="M51.4,400.73 L59.68,403.89 L59.37,423.89 L0.86,398.14 L1.16,378.14 L60.42,355.08 L60.1,375.83 L51.73,378.66 L51.4,400.73 Z M20.4,389.02 L37.53,395.47 L37.72,383.21 L20.4,389.02 Z" id="Shape" fill-rule="nonzero"></path>
                <path d="M15.35,293.87 C18.0127754,290.07177 21.4477346,286.878757 25.43,284.5 L36.06,298.36 C33.4064251,299.461615 31.0195625,301.118779 29.06,303.22 C27.2866314,305.017775 26.0293912,307.259393 25.42,309.71 C24.6164178,312.942514 25.2825969,316.364918 27.24,319.06 C29.3309621,321.923436 32.4418142,323.874431 35.93,324.51 C38.2769595,325.070843 40.7230405,325.070843 43.07,324.51 C45.2341933,323.990244 47.2111898,322.878833 48.78,321.3 C50.3312666,319.723643 51.3968848,317.734721 51.85,315.57 C52.303117,313.219926 52.2072931,310.79695 51.57,308.49 C50.9061379,305.824301 49.753281,303.304969 48.17,301.06 L62.33,292.68 C65.1344394,296.736629 67.099613,301.312968 68.11,306.14 C69.1772324,310.763927 69.2284098,315.564371 68.26,320.21 C67.1337834,325.683936 64.6200992,330.776729 60.96,335 C57.4921443,338.980899 52.9940712,341.928867 47.96,343.52 C42.7440415,345.146835 37.1864417,345.340262 31.87,344.08 C26.5691953,342.988705 21.6766756,340.443764 17.74,336.73 C13.8981918,333.079335 11.1458941,328.433319 9.79,323.31 C8.31786549,317.792052 8.24225967,311.994461 9.57,306.44 C10.6148006,301.898142 12.5821924,297.619576 15.35,293.87 Z" id="Shape" fill-rule="nonzero"></path>
                <polygon id="Shape" fill-rule="nonzero" points="91.44 251.13 72.06 242.42 64.6 259.03 83.97 267.73 75.97 285.53 22.25 261.39 30.25 243.58 51.09 252.95 58.56 236.34 37.68 226.98 45.68 209.21 99.41 233.36"></polygon>
                <polygon id="Shape" fill-rule="nonzero" points="81.75 179.04 87.6 183.27 103.73 160.97 115.68 169.63 99.57 191.92 105.51 196.23 123.68 171.07 135.68 179.73 106.04 220.73 58.31 186.21 87.52 145.83 99.52 154.51"></polygon>
                <polygon id="Shape" fill-rule="nonzero" points="183.97 111.66 194.36 124.09 160.56 152.35 122.78 107.15 137.78 94.63 165.17 127.39"></polygon>
                <path d="M216.76,46.73 C222.113099,46.5470279 227.411276,47.859452 232.06,50.52 C236.756486,53.2444858 240.597731,57.2277431 243.15,62.02 C245.857673,66.7690097 247.193947,72.1764158 247.01,77.64 C246.793968,83.0246361 245.098603,88.2456688 242.11,92.73 C238.89901,97.5350312 234.550016,101.471799 229.45,104.19 C224.428734,107.054929 218.778821,108.638278 213,108.8 C207.629169,108.95765 202.321698,107.606531 197.68,104.9 C192.956244,102.117667 189.09124,98.0865743 186.51,93.25 C183.808061,88.5362365 182.481223,83.1595973 182.68,77.73 C182.924641,72.3880695 184.656357,67.2206297 187.68,62.81 C190.921534,58.0322375 195.281266,54.1187774 200.38,51.41 C205.378436,48.5417897 211.000764,46.9354102 216.76,46.73 Z M203.76,70.06 C202.650909,72.069967 202.085613,74.3345985 202.12,76.63 C202.158363,79.0880663 202.818918,81.4963366 204.04,83.63 C205.213217,85.8177757 206.914814,87.677501 208.99,89.04 C210.921515,90.3237119 213.155739,91.0787966 215.47,91.23 C217.68428,91.3924707 219.897903,90.9059603 221.84,89.83 C223.759546,88.7880823 225.320705,87.1920764 226.32,85.25 C227.337134,83.2334936 227.806148,80.9849824 227.68,78.73 C227.568413,76.2726153 226.883497,73.8754105 225.68,71.73 C224.524043,69.5593945 222.868508,67.6947748 220.85,66.29 C219.012998,65.003022 216.865751,64.2297369 214.63,64.05 C212.458259,63.8853639 210.286524,64.3691318 208.39,65.44 C206.435118,66.5035445 204.827769,68.1074219 203.76,70.06 Z" id="Shape" fill-rule="nonzero"></path>
                <path d="M291.75,16.59 C296.364843,17.0367503 300.834534,18.4471559 304.87,20.73 L298.05,36.82 C295.782907,35.0638179 293.168499,33.8094477 290.38,33.14 C287.948538,32.4708035 285.381462,32.4708035 282.95,33.14 C279.719826,34.0304144 277.054658,36.3143206 275.68,39.37 C274.222347,42.6028332 274.061268,46.271862 275.23,49.62 C275.903389,51.9352284 277.112718,54.0592619 278.76,55.82 C280.281167,57.4462552 282.222891,58.6195963 284.37,59.21 C286.507084,59.7818979 288.763642,59.7263518 290.87,59.05 C293.132041,58.2835305 295.18574,57.0033914 296.87,55.31 C298.86918,53.4354082 300.500504,51.2037837 301.68,48.73 L315.96,56.92 C313.815748,61.362715 310.803129,65.330803 307.1,68.59 C303.608099,71.7993367 299.458372,74.2086354 294.94,75.65 C289.623063,77.3791415 283.949146,77.7029716 278.47,76.59 C273.301738,75.5244948 268.529024,73.0498823 264.68,69.44 C260.687017,65.7086702 257.768814,60.9739287 256.23,55.73 C254.580488,50.5758669 254.390123,45.0656824 255.68,39.81 C256.959483,34.6711465 259.638722,29.9876716 263.42,26.28 C267.48455,22.2759131 272.475961,19.3387788 277.95,17.73 C282.423415,16.4090854 287.120467,16.0210681 291.75,16.59 Z" id="Shape" fill-rule="nonzero"></path>
                <path d="M345.24,55.5 L343,64.07 L323.11,65.93 L342.38,4.93 L362.27,3.08 L391.59,59.5 L370.93,61.42 L367.22,53.42 L345.24,55.5 Z M353.54,23.42 L348.97,41.14 L361.18,40 L353.54,23.42 Z" id="Shape" fill-rule="nonzero"></path>
                <polygon id="Shape" fill-rule="nonzero" points="446.26 47.59 444.68 63.73 400.84 59.47 406.55 0.84 425.98 2.74 421.84 45.23"></polygon>
                <path d="M537.81,32.14 C541.236269,35.2677397 543.96255,39.0845329 545.81,43.34 L530.68,52.1 C529.923409,49.3318677 528.583429,46.757606 526.75,44.55 C525.188657,42.5542932 523.114951,41.0197506 520.75,40.11 C517.650333,38.8958457 514.172279,39.1155123 511.25,40.71 C508.141226,42.4137888 505.804128,45.2447912 504.72,48.62 C503.869629,50.8804205 503.561372,53.3088039 503.82,55.71 C504.056574,57.9247678 504.904894,60.0299863 506.27,61.79 C507.634606,63.5309632 509.470828,64.8430462 511.56,65.57 C513.830907,66.3163401 516.242743,66.531866 518.61,66.2 C521.340614,65.8833784 523.988772,65.0628225 526.42,63.78 L532.9,78.9 C528.517396,81.1604201 523.726572,82.5204836 518.81,82.9 C514.077385,83.3712285 509.298978,82.8012328 504.81,81.23 C499.523109,79.4155098 494.793956,76.2673337 491.08,72.09 C487.572136,68.137902 485.225641,63.2926315 484.3,58.09 C483.363399,52.7176 483.884847,47.192322 485.81,42.09 C487.571877,36.9759671 490.718686,32.4513487 494.9,29.02 C499.011104,25.6789703 503.968036,23.5431973 509.22,22.85 C514.886099,22.1207839 520.644601,22.807956 525.98,24.85 C530.383149,26.439675 534.410582,28.9214999 537.81,32.14 Z" id="Shape" fill-rule="nonzero"></path>
                <path d="M605.85,69.83 C608.648248,74.3964228 610.113446,79.6545081 610.08,85.01 C610.02926,90.4376416 608.456285,95.7421021 605.54,100.32 C602.744061,105.019147 598.696679,108.848407 593.85,111.38 C589.059716,113.83305 583.687499,114.922714 578.32,114.53 C572.547652,114.117332 566.969342,112.271643 562.09,109.16 C557.130632,106.209816 552.969383,102.089768 549.97,97.16 C547.186738,92.5542182 545.749106,87.2609616 545.82,81.88 C545.918022,76.4032365 547.527216,71.0600185 550.47,66.44 C553.242078,61.7581838 557.27121,57.9473104 562.1,55.44 C566.862178,53.0289091 572.201225,51.9901841 577.52,52.44 C583.262949,52.8977942 588.808679,54.744083 593.68,57.82 C598.654065,60.7726721 602.831762,64.8954452 605.85,69.83 Z M579.15,70 C576.852983,70.0253027 574.602267,70.6491611 572.62,71.81 C570.481887,73.0551976 568.695837,74.8240415 567.43,76.95 C566.099196,79.0564771 565.31866,81.4634134 565.16,83.95 C564.996236,86.2631257 565.437364,88.5790459 566.44,90.67 C567.394873,92.6735228 568.909105,94.3579321 570.8,95.52 C572.651602,96.6763874 574.808731,97.2479048 576.99,97.16 C579.249781,97.0687471 581.444706,96.3785191 583.35,95.16 C585.440976,93.8428443 587.191726,92.0509806 588.46,89.93 C589.777706,87.8554087 590.583195,85.49721 590.81,83.05 C591.030855,80.8047156 590.640407,78.5414941 589.68,76.5 C588.763748,74.5231891 587.281072,72.8630095 585.42,71.73 C583.537748,70.5671965 581.362214,69.9669298 579.15,70 Z" id="Shape" fill-rule="nonzero"></path>
                <polygon id="Shape" fill-rule="nonzero" points="634.57 167.36 657.31 144.51 631.44 156.21 622.39 147.21 633.96 121.28 611.22 144.13 599.22 132.13 640.77 90.38 655.32 104.93 642.75 135.82 673.55 123.07 688.15 137.59 646.6 179.34"></polygon>
                <polygon id="Shape" fill-rule="nonzero" points="681.81 232.73 709.38 216.04 681.46 221.16 674.85 210.25 692.31 187.87 664.74 204.58 655.94 190.06 706.31 159.53 716.98 177.14 697.35 204.14 730.35 199.14 740.98 216.73 690.61 247.27"></polygon>
                <path d="M724.28,305.97 C719.861193,305.001047 715.826244,302.750519 712.68,299.5 C709.13489,295.798183 706.51081,291.313951 705.02,286.41 C703.312391,281.536738 702.747855,276.336163 703.37,271.21 C703.949199,266.664612 705.847375,262.388501 708.83,258.91 C711.973304,255.337166 716.048557,252.709199 720.6,251.32 L752.84,240.73 L758.93,259.24 L726.68,269.83 C724.223207,270.539486 722.163664,272.223253 720.98,274.49 C719.838749,276.625958 719.639435,279.140944 720.43,281.43 C721.095717,283.653042 722.69392,285.477476 724.81,286.43 C727.155302,287.407565 729.786494,287.446943 732.16,286.54 L764.42,275.93 L770.51,294.43 L738.25,305.04 C733.76463,306.615018 728.934566,306.936562 724.28,305.97 Z" id="Shape" fill-rule="nonzero"></path>
                <polygon id="Shape" fill-rule="nonzero" points="722.21 366.57 749.68 340.37 719.79 343.52 717.92 325.86 776.48 319.73 778.2 335.96 750.54 362.27 780.64 359.09 782.49 376.63 723.92 382.73"></polygon>
                <polygon id="Shape" fill-rule="nonzero" points="724.79 397.05 783.61 400.05 782.61 419.55 723.79 416.55"></polygon>
                <polygon id="Shape" fill-rule="nonzero" points="759 471.03 716.28 462.73 719.99 443.61 762.68 451.9 765.87 435.48 780.97 438.41 770.86 490.47 755.77 487.54"></polygon>
                <polygon id="Shape" fill-rule="nonzero" points="696.86 522.79 704.13 504.73 720.68 511.4 766.8 506.73 759.55 524.73 734.1 527.22 750.87 546.31 743.62 564.31 713.83 529.59"></polygon>
            </g>
            <text id="Chapter-Name" font-family="Montserrat-Light, Montserrat" font-size="60" font-weight="300" letter-spacing="3.5" fill="#A7A7A7">
                <tspan x="214.089355" y="778">Beijing (北京) Chapter</tspan>
            </text>
        </g>
    </g>
</svg>