<?xml version="1.0" encoding="UTF-8"?>
<svg width="1327px" height="300px" viewBox="0 0 1327 300" version="1.1" xmlns="http://www.w3.org/2000/svg" xmlns:xlink="http://www.w3.org/1999/xlink">
    <!-- Generator: Sketch 50.2 (55047) - http://www.bohemiancoding.com/sketch -->
    <title>ALC - Beijing Chapter</title>
    <desc>Created with Sketch.</desc>
    <defs></defs>
    <g id="ALC---Beijing-Chapter" stroke="none" stroke-width="1" fill="none" fill-rule="evenodd">
        <g id="Chapter-Template">
            <g id="ALC---Icon" transform="translate(30.000000, 0.000000)">
                <path d="M87.0065024,232.230223 C76.3790959,244.140369 61.3221607,260.809242 41.8356968,282.236842 C20.8493437,237.410436 8.21440981,209.356957 3.93089521,198.076407 C-0.352619383,186.795858 -1.13530981,175.483494 1.58282393,164.139316 C6.88741174,138.710338 28.0434982,120.325778 52.8020254,118.010152 C53.2832881,124.048823 54.3391082,130.142552 55.969486,136.291338 C59.9316187,151.234074 70.2772895,183.213699 87.0064986,232.230212 L87.0065024,232.230223 Z" id="Combined-Shape" fill="#9E2165" fill-rule="evenodd"></path>
                <path d="M246.101924,83.8105941 C266.617332,99.4569781 278.508103,125.197437 275.552313,152.427604 C274.233421,168.439006 268.739272,182.107628 259.158428,193.447614 C249.577584,204.787601 222.914131,234.38401 179.168069,282.236842 C171.234609,265.379551 164.214413,250.346884 158.107481,237.13884 C190.147656,208.45118 210.887537,189.571807 220.327123,180.500721 C234.235097,167.135683 243.185698,150.205973 247.066553,129.681306 C250.444154,114.046749 249.915443,98.3950177 246.101923,83.8105931 L246.101924,83.8105941 Z" id="Combined-Shape" fill="#F79A25" fill-rule="evenodd"></path>
                <path d="M106.432176,283.208652 C106.505043,282.98359 106.566256,282.750389 106.616681,282.509698 C107.122018,279.031207 110.512035,256.198834 116.601596,225.957148 C116.774512,225.098051 116.951759,224.233095 117.128282,223.36299 C117.176553,223.119943 117.229879,222.876187 117.278874,222.638288 C117.925169,219.465541 118.603206,216.225332 119.307932,212.918371 C119.447837,212.268975 119.587742,211.619578 119.885442,211.184211 C120.557934,208.138968 121.536082,204.66822 122.254453,201.537215 C122.453549,200.668436 122.65635,199.78856 122.859882,198.91387 C123.762407,195.032524 124.700421,191.10389 125.66949,187.13388 C126.599188,183.333332 127.567295,179.506239 128.563478,175.654053 C129.559662,171.801866 130.591277,167.939418 131.653158,164.067433 C132.732113,160.129593 133.847958,156.191863 134.992552,152.27125 C136.127485,148.3943 137.295604,144.528556 138.49466,140.695487 C138.926974,139.312741 139.365184,137.934455 139.804123,136.561355 C140.378408,134.769746 145.08611,121.315669 146.406811,117.753428 C147.816579,113.958455 149.263171,110.236967 150.743561,106.605119 C152.278576,102.834514 153.854031,99.1631038 155.467627,95.6121857 C155.560313,95.4051636 155.657469,95.1922705 155.749431,94.9801064 C157.270094,91.6468949 158.825431,88.4232246 160.417149,85.3255316 C163.906165,78.3947176 167.551687,72.0897596 171.355014,66.6069468 C171.646681,66.1730639 171.801724,65.9654498 171.801724,65.9654498 C171.652576,66.1775464 171.504161,66.3948502 171.355014,66.6069468 C170.154521,68.3905834 166.594386,74.0071711 161.384248,84.8684211 C159.935493,87.9320464 158.074845,91.7243222 156.417111,95.6360003 C156.328941,95.8373116 156.242219,96.048916 156.154773,96.2553739 C154.724953,99.6417296 153.218428,103.348496 151.659587,107.39849 C150.308738,110.89447 148.918503,114.637395 147.492503,118.652999 C146.247683,122.14984 142.458584,135.329008 142.127732,136.375 C141.577926,138.120518 141.028039,139.902887 140.473629,141.727993 C140.191985,142.646433 139.916233,143.569308 139.632328,144.509117 C138.789492,147.31677 137.943505,150.214336 137.089201,153.202538 C136.041562,156.875741 134.981811,160.687481 133.921006,164.641467 C132.907828,168.409829 131.891417,172.304954 130.872499,176.332005 C129.90347,180.152061 128.935647,184.092996 127.963138,188.150372 C127.097833,191.771668 126.234542,195.48215 125.370279,199.298027 C125.327817,199.482926 125.285355,199.667826 125.248058,199.852 C124.530396,203.022557 123.117106,209.683486 122.603012,211.838713 C122.474321,212.415873 122.350777,212.992311 122.227953,213.573873 C121.570009,216.65504 120.914129,219.788169 120.23491,223.128357 C120.141096,223.580442 120.052427,224.031805 119.958613,224.48389 C119.522157,226.640458 119.149487,228.579065 118.29542,232.988836 C120.830157,233.73556 123.145361,236.315793 125.411721,239.294772 C124.75049,235.975532 122.913214,233.025153 119.930826,230.961811 C131.753425,229.840508 141.459589,225.463147 145.489689,216.176599 C145.850543,215.347393 146.165182,214.488097 146.430721,213.578216 C144.475786,216.91459 141.706659,218.604357 136.110136,219.071185 C143.769346,214.280972 147.378975,210.210715 150.186286,203.906962 C150.852435,202.413104 151.474828,200.794758 152.094732,199.009554 C146.2417,206.957662 138.680272,210.270113 130.2068,210.234047 C132.846035,208.54931 146.596136,199.896553 151.743524,192.543615 C154.384129,188.773122 156.651212,184.444561 158.612093,179.474803 C160.072179,175.775283 161.361166,171.72085 162.504963,167.271026 C163.506604,163.383237 164.403408,159.199652 165.201351,154.687854 C163.532149,155.890529 161.563912,156.877297 159.354106,157.682194 C158.967967,157.820601 158.571497,157.960459 158.168409,158.09072 C157.765321,158.220981 157.35634,158.346806 156.940742,158.463034 C163.879508,154.615514 167.732921,148.532778 170.154515,141.408975 C168.412172,142.990321 165.523595,145.14833 161.889498,146.500502 C161.394071,146.685828 160.884682,146.846798 160.368674,146.998172 C160.237271,147.037668 160.111034,147.07644 159.98407,147.11005 C162.390033,145.677647 164.366764,144.189711 166.02888,142.524894 C166.384518,142.169725 166.728371,141.805685 167.054549,141.428337 C167.553783,140.858285 168.018393,140.266778 168.458708,139.652367 C168.740656,139.260176 169.010819,138.859113 169.268472,138.444017 C169.874829,137.474736 170.425253,136.444888 170.922733,135.338265 C171.075455,135.001053 171.222286,134.659406 171.367664,134.307436 C171.544365,133.803708 171.712187,133.311753 171.87557,132.825683 C172.609339,130.628048 173.167708,128.681338 173.592002,126.979753 C173.804149,126.128961 173.983686,125.345901 174.129159,124.620251 C174.188817,124.332943 174.244036,124.051521 174.295541,123.781145 C174.444892,122.970745 174.560097,122.254607 174.640431,121.62757 C174.761294,120.689596 174.810154,119.951193 174.819456,119.418333 C174.599099,119.649254 174.342583,119.885251 174.04918,120.121163 C172.290704,121.537969 169.327099,123.028687 166.626723,124.04602 C170.61957,120.899415 172.412635,117.547514 174.216381,114.161862 C174.772446,113.070906 175.327186,111.932903 175.871663,110.759603 C177.537224,107.166967 179.114169,103.245636 180.475914,99.375505 C181.787533,95.6383667 182.890592,91.9619925 183.67276,88.6770419 C184.167671,86.5870163 184.531543,84.6570855 184.735148,82.9805718 C184.882762,81.7574522 185.002363,80.2541002 185.078122,79.0177751 C185.566901,65.206796 179.974909,59.6993336 179.974909,59.6993336 C179.974909,59.6993336 172.591898,50.7421759 166.131207,55.9342397 C162.994953,58.4506888 158.122882,65.0180839 152.522309,74.3453679 C152.196353,74.8778792 151.870185,75.4176666 151.537839,75.9655673 C150.044416,78.4509032 148.502158,81.1161318 146.933414,83.9318979 C145.166145,87.1058752 143.364046,90.4839972 141.546573,94.0163406 C139.871683,97.2822224 138.185166,100.691313 136.513844,104.208385 C135.092053,107.202779 133.671452,110.280904 132.276562,113.42883 C132.241612,113.507286 132.03831,113.89469 131.872812,114.152485 C131.769146,114.389143 131.670646,114.625075 131.566981,114.861733 C130.112627,118.228253 128.673656,121.666649 127.280332,125.167385 C125.870724,128.702137 124.506033,132.294042 123.189237,135.926819 C122.076969,138.991485 121.004512,142.077004 119.97703,145.182652 C119.770927,145.814443 119.56853,146.435137 119.366863,147.061017 C118.109407,150.965743 117.010078,154.721354 116.041589,158.321105 C114.945446,162.398853 114.021527,166.277913 113.251417,169.939719 C112.742241,172.348599 112.299608,174.668816 111.906561,176.892171 C111.593713,178.786974 111.307424,180.683337 111.050672,182.564978 C110.437243,187.003317 109.606691,192.34815 109.496167,196.916664 C109.253218,201.968431 109.274458,206.963437 109.651282,212.425675 C106.586982,208.707924 99.3562652,205.674758 99.3765007,205.708671 C105.145712,212.092019 109.755222,218.585645 111.263291,225.383348 C108.780994,226.277829 105.169455,225.997197 100.906962,225.046619 C105.683283,228.403298 109.006135,229.049981 110.280764,229.170343 C106.438635,229.961673 102.781799,233.241971 99.1525961,236.938429 C104.754136,233.631931 109.423437,231.978927 112.977219,232.288668 C109.934762,247.776713 107.081688,264.707305 104.364733,282.611223 C77.289055,204.629912 61.1573061,155.856617 55.969486,136.291338 C50.7405328,116.57093 51.4215672,97.4168497 58.0125891,78.8290954 C74.0095478,29.0875106 126.090284,0.0826195707 176.767458,13.7139095 C227.444632,27.3451994 258.10081,78.6048998 247.066553,129.681306 C243.185698,150.205973 234.235097,167.135683 220.327123,180.500721 C206.524101,193.764903 168.559119,228.000881 106.432176,283.208652 Z" id="Combined-Shape" fill="#662F8F" fill-rule="nonzero"></path>
            </g>
            <path d="M352.695291,168.052734 L350.527322,174 L336.259744,174 L354.01365,131.929688 L368.281228,131.929688 L385.390603,174 L370.566384,174 L368.457009,168.052734 L352.695291,168.052734 Z M360.722634,145.787109 L356.298806,158.091797 L365.058572,158.091797 L360.722634,145.787109 Z M411.009745,131.929688 C416.498053,131.929688 420.741175,133.243151 423.739237,135.870117 C426.737299,138.497083 428.236307,142.203101 428.236307,146.988281 C428.236307,152.066432 426.737299,156.016587 423.739237,158.838867 C420.741175,161.661147 416.498053,163.072266 411.009745,163.072266 L405.208963,163.072266 L405.208963,174 L391.263651,174 L391.263651,131.929688 L411.009745,131.929688 Z M405.208963,152.525391 L410.30662,152.525391 C411.830065,152.525391 412.997045,152.076176 413.807596,151.177734 C414.618147,150.279292 415.023417,149.029305 415.023417,147.427734 C415.023417,145.865227 414.613264,144.654301 413.792948,143.794922 C412.972631,142.935543 411.810533,142.505859 410.30662,142.505859 L405.208963,142.505859 L405.208963,152.525391 Z M445.154277,168.052734 L442.986308,174 L428.71873,174 L446.472636,131.929688 L460.740214,131.929688 L477.849589,174 L463.025371,174 L460.915996,168.052734 L445.154277,168.052734 Z M453.181621,145.787109 L448.757793,158.091797 L457.517558,158.091797 L453.181621,145.787109 Z M503.234356,131.519531 C506.437497,131.519531 509.660121,132.217766 512.902325,133.614258 C516.144528,135.010749 518.839814,136.871082 520.988262,139.195312 L512.960919,148.746094 C511.730444,147.027335 510.241201,145.655279 508.493145,144.629883 C506.745089,143.604487 505.05077,143.091797 503.410137,143.091797 C500.890593,143.091797 498.810536,143.995108 497.169903,145.801758 C495.52927,147.608407 494.708965,149.908189 494.708965,152.701172 C494.708965,154.537119 495.080055,156.197258 495.822247,157.681641 C496.564438,159.166023 497.604466,160.328121 498.942364,161.167969 C500.280261,162.007817 501.769504,162.427734 503.410137,162.427734 C504.933582,162.427734 506.564425,161.998051 508.302715,161.138672 C510.041005,160.279293 511.593724,159.107429 512.960919,157.623047 L520.988262,166.207031 C518.624969,168.765638 515.792966,170.80175 512.492169,172.31543 C509.191371,173.829109 505.929685,174.585938 502.707012,174.585938 C498.46871,174.585938 494.655271,173.648447 491.266583,171.773438 C487.877894,169.898428 485.226553,167.310563 483.312481,164.009766 C481.398409,160.708968 480.441387,156.998067 480.441387,152.876953 C480.441387,148.794901 481.41794,145.132829 483.371075,141.890625 C485.32421,138.648421 488.034143,136.109384 491.500958,134.273438 C494.967772,132.437491 498.878865,131.519531 503.234356,131.519531 Z M554.253888,174 L554.253888,158.824219 L541.246076,158.824219 L541.246076,174 L527.300763,174 L527.300763,131.929688 L541.246076,131.929688 L541.246076,148.248047 L554.253888,148.248047 L554.253888,131.929688 L568.169904,131.929688 L568.169904,174 L554.253888,174 Z M591.59178,142.505859 L591.59178,147.662109 L611.249983,147.662109 L611.249983,158.208984 L591.59178,158.208984 L591.59178,163.453125 L613.769514,163.453125 L613.769514,174 L577.646467,174 L577.646467,131.929688 L613.242171,131.929688 L613.242171,142.505859 L591.59178,142.505859 Z M670.04686,162.427734 L670.04686,174 L638.582016,174 L638.582016,131.929688 L652.527329,131.929688 L652.527329,162.427734 L670.04686,162.427734 Z M698.126939,131.519531 C702.521492,131.519531 706.481414,132.437491 710.006822,134.273438 C713.53223,136.109384 716.286109,138.658187 718.268541,141.919922 C720.250972,145.181657 721.242174,148.853495 721.242174,152.935547 C721.242174,157.056661 720.250972,160.757796 718.268541,164.039062 C716.286109,167.320329 713.53223,169.898428 710.006822,171.773438 C706.481414,173.648447 702.521492,174.585938 698.126939,174.585938 C693.732386,174.585938 689.772465,173.658212 686.247056,171.802734 C682.721648,169.947256 679.972652,167.369157 677.999986,164.068359 C676.02732,160.767562 675.041002,157.056661 675.041002,152.935547 C675.041002,148.814433 676.02732,145.132829 677.999986,141.890625 C679.972652,138.648421 682.721648,136.109384 686.247056,134.273438 C689.772465,132.437491 693.732386,131.519531 698.126939,131.519531 Z M698.30272,143.091797 C696.70115,143.091797 695.211907,143.52148 693.834947,144.380859 C692.457987,145.240239 691.359365,146.421867 690.539049,147.925781 C689.718732,149.429695 689.30858,151.119131 689.30858,152.994141 C689.30858,154.86915 689.718732,156.568352 690.539049,158.091797 C691.359365,159.615242 692.457987,160.816402 693.834947,161.695312 C695.211907,162.574223 696.70115,163.013672 698.30272,163.013672 C699.904291,163.013672 701.364237,162.574223 702.682603,161.695312 C704.000969,160.816402 705.040998,159.615242 705.80272,158.091797 C706.564443,156.568352 706.945299,154.86915 706.945299,152.994141 C706.945299,151.119131 706.564443,149.429695 705.80272,147.925781 C705.040998,146.421867 704.000969,145.240239 702.682603,144.380859 C701.364237,143.52148 699.904291,143.091797 698.30272,143.091797 Z M749.322253,131.519531 C752.525394,131.519531 755.748018,132.217766 758.990221,133.614258 C762.232425,135.010749 764.927711,136.871082 767.076159,139.195312 L759.048815,148.746094 C757.81834,147.027335 756.329097,145.655279 754.581042,144.629883 C752.832986,143.604487 751.138667,143.091797 749.498034,143.091797 C746.97849,143.091797 744.898433,143.995108 743.2578,145.801758 C741.617166,147.608407 740.796862,149.908189 740.796862,152.701172 C740.796862,154.537119 741.167952,156.197258 741.910143,157.681641 C742.652334,159.166023 743.692363,160.328121 745.03026,161.167969 C746.368158,162.007817 747.857401,162.427734 749.498034,162.427734 C751.021479,162.427734 752.652322,161.998051 754.390612,161.138672 C756.128902,160.279293 757.681621,159.107429 759.048815,157.623047 L767.076159,166.207031 C764.712866,168.765638 761.880863,170.80175 758.580065,172.31543 C755.279267,173.829109 752.017581,174.585938 748.794909,174.585938 C744.556606,174.585938 740.743168,173.648447 737.354479,171.773438 C733.96579,169.898428 731.31445,167.310563 729.400378,164.009766 C727.486306,160.708968 726.529284,156.998067 726.529284,152.876953 C726.529284,148.794901 727.505837,145.132829 729.458971,141.890625 C731.412106,138.648421 734.12204,136.109384 737.588854,134.273438 C741.055668,132.437491 744.966762,131.519531 749.322253,131.519531 Z M785.664051,168.052734 L783.496082,174 L769.228504,174 L786.98241,131.929688 L801.249988,131.929688 L818.359363,174 L803.535144,174 L801.425769,168.052734 L785.664051,168.052734 Z M793.691394,145.787109 L789.267566,158.091797 L798.027332,158.091797 L793.691394,145.787109 Z M855.697255,162.427734 L855.697255,174 L824.232411,174 L824.232411,131.929688 L838.177723,131.929688 L838.177723,162.427734 L855.697255,162.427734 Z M899.523429,131.519531 C902.72657,131.519531 905.949194,132.217766 909.191397,133.614258 C912.433601,135.010749 915.128887,136.871082 917.277335,139.195312 L909.249991,148.746094 C908.019516,147.027335 906.530273,145.655279 904.782218,144.629883 C903.034162,143.604487 901.339843,143.091797 899.69921,143.091797 C897.179666,143.091797 895.099609,143.995108 893.458975,145.801758 C891.818342,147.608407 890.998038,149.908189 890.998038,152.701172 C890.998038,154.537119 891.369128,156.197258 892.111319,157.681641 C892.85351,159.166023 893.893539,160.328121 895.231436,161.167969 C896.569334,162.007817 898.058577,162.427734 899.69921,162.427734 C901.222655,162.427734 902.853498,161.998051 904.591788,161.138672 C906.330078,160.279293 907.882797,159.107429 909.249991,157.623047 L917.277335,166.207031 C914.914042,168.765638 912.082039,170.80175 908.781241,172.31543 C905.480443,173.829109 902.218757,174.585938 898.996085,174.585938 C894.757782,174.585938 890.944344,173.648447 887.555655,171.773438 C884.166966,169.898428 881.515626,167.310563 879.601554,164.009766 C877.687481,160.708968 876.73046,156.998067 876.73046,152.876953 C876.73046,148.794901 877.707012,145.132829 879.660147,141.890625 C881.613282,138.648421 884.323216,136.109384 887.79003,134.273438 C891.256844,132.437491 895.167938,131.519531 899.523429,131.519531 Z M944.009758,131.519531 C948.404311,131.519531 952.364232,132.437491 955.88964,134.273438 C959.415049,136.109384 962.168927,138.658187 964.151359,141.919922 C966.133791,145.181657 967.124992,148.853495 967.124992,152.935547 C967.124992,157.056661 966.133791,160.757796 964.151359,164.039062 C962.168927,167.320329 959.415049,169.898428 955.88964,171.773438 C952.364232,173.648447 948.404311,174.585938 944.009758,174.585938 C939.615204,174.585938 935.655283,173.658212 932.129875,171.802734 C928.604467,169.947256 925.855471,167.369157 923.882805,164.068359 C921.910138,160.767562 920.92382,157.056661 920.92382,152.935547 C920.92382,148.814433 921.910138,145.132829 923.882805,141.890625 C925.855471,138.648421 928.604467,136.109384 932.129875,134.273438 C935.655283,132.437491 939.615204,131.519531 944.009758,131.519531 Z M944.185539,143.091797 C942.583968,143.091797 941.094725,143.52148 939.717765,144.380859 C938.340805,145.240239 937.242184,146.421867 936.421867,147.925781 C935.60155,149.429695 935.191398,151.119131 935.191398,152.994141 C935.191398,154.86915 935.60155,156.568352 936.421867,158.091797 C937.242184,159.615242 938.340805,160.816402 939.717765,161.695312 C941.094725,162.574223 942.583968,163.013672 944.185539,163.013672 C945.787109,163.013672 947.247056,162.574223 948.565422,161.695312 C949.883788,160.816402 950.923816,159.615242 951.685539,158.091797 C952.447261,156.568352 952.828117,154.86915 952.828117,152.994141 C952.828117,151.119131 952.447261,149.429695 951.685539,147.925781 C950.923816,146.421867 949.883788,145.240239 948.565422,144.380859 C947.247056,143.52148 945.787109,143.091797 944.185539,143.091797 Z M1010.14648,174 L1010.14648,150.972656 L1002.93945,169.927734 L993.828118,169.927734 L986.621087,150.972656 L986.621087,174 L974.492181,174 L974.492181,131.929688 L989.199212,131.929688 L998.398431,153.902344 L1007.56835,131.929688 L1022.27538,131.929688 L1022.27538,174 L1010.14648,174 Z M1067.40624,174 L1067.40624,150.972656 L1060.19921,169.927734 L1051.08788,169.927734 L1043.88085,150.972656 L1043.88085,174 L1031.75195,174 L1031.75195,131.929688 L1046.45898,131.929688 L1055.6582,153.902344 L1064.82812,131.929688 L1079.53515,131.929688 L1079.53515,174 L1067.40624,174 Z M1128.79687,156.1875 C1128.79687,159.859393 1127.97657,163.0869 1126.33593,165.870117 C1124.6953,168.653334 1122.36622,170.80175 1119.34863,172.31543 C1116.33103,173.829109 1112.8008,174.585938 1108.75781,174.585938 C1104.71482,174.585938 1101.15528,173.829109 1098.0791,172.31543 C1095.00291,170.80175 1092.625,168.653334 1090.94531,165.870117 C1089.26561,163.0869 1088.42578,159.859393 1088.42578,156.1875 L1088.42578,131.929688 L1102.34179,131.929688 L1102.34179,156.1875 C1102.34179,158.179697 1102.97167,159.815423 1104.23144,161.094727 C1105.49121,162.37403 1107.01952,163.013672 1108.8164,163.013672 C1110.57422,163.013672 1112.0244,162.393561 1113.16699,161.15332 C1114.30957,159.91308 1114.88085,158.257823 1114.88085,156.1875 L1114.88085,131.929688 L1128.79687,131.929688 L1128.79687,156.1875 Z M1166.92578,174 L1150.37304,152.525391 L1150.37304,174 L1137.6875,174 L1137.6875,131.929688 L1149.34765,131.929688 L1165.95898,153.550781 L1165.95898,131.929688 L1178.55664,131.929688 L1178.55664,174 L1166.92578,174 Z M1188.0332,174 L1188.0332,131.929688 L1201.97851,131.929688 L1201.97851,174 L1188.0332,174 Z M1234.59961,142.916016 L1234.59961,174 L1220.68359,174 L1220.68359,142.916016 L1208.73047,142.916016 L1208.73047,131.929688 L1246.61133,131.929688 L1246.61133,142.916016 L1234.59961,142.916016 Z M1279.05664,174 L1265.14062,174 L1265.14062,161.226562 L1249.78906,131.929688 L1263.64648,131.929688 L1272.08398,148.130859 L1280.25781,131.929688 L1294.11523,131.929688 L1279.05664,160.933594 L1279.05664,174 Z" id="APACHE-LOCAL-COMMUNI" fill="#DC3545" fill-rule="evenodd"></path>
            <text id="Chapter-Name" font-family="Montserrat-Light, Montserrat" font-size="48" font-weight="300" letter-spacing="3.500001" fill="#A7A7A7">
                <tspan x="336" y="238">Beijing Chapter</tspan>
            </text>
        </g>
    </g>
</svg>